<svg width="600" height="654" viewBox="0 0 600 654" fill="none" xmlns="http://www.w3.org/2000/svg">
<path d="M574.518 426.404L574.323 396.864L538.464 389.589L349.976 280.615C321.853 264.35 272.669 266.297 240.127 284.969L66.2429 384.687C64.8235 385.501 63.475 386.35 62.162 387.2L39.3086 394.156V421.023C39.5393 431.112 45.7494 440.705 58.2584 447.944L263.85 566.811C291.973 583.077 341.158 581.13 373.699 562.458L547.584 462.74C565.664 452.368 574.784 439.023 574.518 426.404V426.404Z" fill="#9ED5FF"/>
<path d="M263.886 539.962L58.2942 421.076C30.1533 404.811 33.7375 376.492 66.2787 357.819L240.163 258.12C272.704 239.447 321.889 237.5 350.012 253.766L555.639 372.634C583.78 388.899 580.196 417.218 547.655 435.891L373.77 535.608C341.194 554.28 292.009 556.227 263.886 539.962Z" fill="#B8E1FF"/>
<path d="M253.612 221.571L229.144 207.412C228.489 206.947 227.726 206.659 226.927 206.575C226.128 206.492 225.321 206.615 224.584 206.934V206.934L125.381 263.961L159.235 392.492L257.941 335.766C259.609 334.97 260.691 332.881 260.691 329.837L260.869 235.27C260.798 230.031 257.551 223.872 253.612 221.571Z" fill="url(#paint0_linear_195_338)"/>
<path d="M154.64 392.12L130.154 377.961C126.179 375.66 123.057 369.519 123.057 364.227L123.216 269.642C123.216 264.332 126.463 261.943 130.438 264.226L154.906 278.385C158.88 280.686 162.092 286.846 162.092 292.12L161.914 386.704C161.737 391.997 158.526 394.421 154.64 392.12Z" fill="#9ED5FF"/>
<path d="M149.636 380.935L133.969 371.873C132.56 370.861 131.41 369.533 130.611 367.995C129.813 366.458 129.389 364.754 129.373 363.023V278.509C129.373 275.129 131.449 273.571 133.986 274.969L149.654 284.031C151.062 285.043 152.213 286.371 153.011 287.909C153.809 289.446 154.234 291.15 154.249 292.881V377.377C154.249 380.864 152.173 382.404 149.636 380.935Z" fill="#B8E1FF"/>
<path d="M141.598 367.908C140.191 366.894 139.043 365.566 138.245 364.029C137.446 362.492 137.021 360.789 137.003 359.058V276.81L134.004 275.04C131.449 273.571 129.391 275.04 129.391 278.58V363.094C129.399 364.825 129.818 366.529 130.613 368.067C131.409 369.606 132.559 370.934 133.968 371.943L149.636 381.005C152.191 382.474 154.249 381.005 154.249 377.465V375.2L141.598 367.908Z" fill="#43AEFF"/>
<g style="mix-blend-mode:lighten" opacity="0.3">
<path d="M140.179 386.474L124.476 377.412C123.068 376.401 121.917 375.072 121.119 373.535C120.321 371.998 119.897 370.294 119.881 368.563V284.067C119.881 280.669 121.957 279.129 124.494 280.527L140.161 289.589C141.57 290.601 142.72 291.929 143.519 293.466C144.317 295.004 144.741 296.707 144.757 298.439V382.952C144.792 386.386 142.717 387.943 140.179 386.474Z" fill="#CCE9FF"/>
</g>
<g style="mix-blend-mode:lighten" opacity="0.7">
<path d="M134.928 393.324C134.029 393.306 133.151 393.043 132.391 392.563L116.724 383.501C115.104 382.376 113.776 380.882 112.85 379.143C111.924 377.404 111.428 375.47 111.401 373.501V288.987C111.319 288.035 111.489 287.078 111.894 286.211C112.299 285.345 112.924 284.599 113.707 284.049C114.4 283.687 115.179 283.518 115.96 283.562C116.741 283.606 117.495 283.86 118.143 284.297L133.811 293.359C135.433 294.486 136.762 295.982 137.688 297.725C138.614 299.467 139.11 301.405 139.134 303.377V387.873C139.219 388.825 139.051 389.784 138.646 390.651C138.241 391.518 137.613 392.263 136.827 392.811C136.251 393.147 135.596 393.324 134.928 393.324V393.324ZM115.606 286.368C115.438 286.365 115.272 286.408 115.127 286.492C114.701 286.739 114.24 287.518 114.24 288.987V373.501C114.264 374.973 114.626 376.421 115.3 377.731C115.974 379.041 116.941 380.18 118.126 381.058L133.793 390.12C134.02 390.285 134.284 390.393 134.561 390.436C134.839 390.479 135.123 390.456 135.39 390.368C135.816 390.12 136.277 389.342 136.277 387.873V303.377C136.257 301.901 135.896 300.45 135.222 299.136C134.548 297.822 133.579 296.681 132.391 295.801L116.724 286.739C116.388 286.525 116.004 286.397 115.606 286.368Z" fill="#CCE9FF"/>
</g>
<g style="mix-blend-mode:overlay">
<g style="mix-blend-mode:lighten" opacity="0.7">
<path d="M100.523 412.935C99.6205 412.916 98.7392 412.659 97.9679 412.191L82.3006 403.129C80.6781 402.003 79.3487 400.506 78.4229 398.763C77.497 397.021 77.0016 395.083 76.9776 393.112V308.616C76.8942 307.661 77.0653 306.702 77.4735 305.834C77.8817 304.967 78.5125 304.223 79.302 303.678C79.9916 303.315 80.7671 303.146 81.5454 303.19C82.3238 303.234 83.0755 303.488 83.72 303.925L99.3874 312.987C101.007 314.112 102.335 315.606 103.261 317.345C104.187 319.084 104.684 321.018 104.71 322.987V407.501C104.796 408.454 104.627 409.412 104.222 410.279C103.817 411.146 103.19 411.891 102.404 412.439C101.832 412.768 101.183 412.939 100.523 412.935V412.935ZM81.2537 305.996C81.0859 305.995 80.9207 306.038 80.7746 306.12C80.3488 306.368 79.8875 307.147 79.8875 308.616V393.112C79.9114 394.587 80.2741 396.036 80.9477 397.35C81.6213 398.663 82.588 399.805 83.7733 400.687L99.4406 409.749C99.8133 409.961 100.523 410.297 101.038 409.997C101.552 409.696 101.925 408.97 101.925 407.501V322.987C101.905 321.514 101.544 320.065 100.87 318.754C100.196 317.443 99.2268 316.306 98.0389 315.43L82.3715 306.368C82.0371 306.15 81.6522 306.022 81.2537 305.996V305.996Z" fill="#CCE9FF"/>
</g>
</g>
<g filter="url(#filter0_i_195_338)">
<path d="M184.574 329.731V324.987L182.09 326.439L180.848 327.164V331.837L176.926 334.102V329.412L173.289 331.501V297.2L176.926 295.111V290.421L180.865 288.173V292.846L183.633 291.253L184.592 290.739V286.049L188.513 283.784V288.899C189.286 288.651 190.117 288.651 190.89 288.899C191.758 289.209 192.471 289.844 192.878 290.669C193.448 291.759 193.723 292.979 193.676 294.208C193.65 295.911 193.319 297.595 192.7 299.182C192.114 300.841 191.243 302.386 190.127 303.748C190.769 303.56 191.451 303.557 192.095 303.738C192.738 303.92 193.317 304.279 193.765 304.775C194.694 306.069 195.14 307.647 195.025 309.235C194.996 310.941 194.721 312.634 194.208 314.262C193.689 315.97 192.931 317.597 191.955 319.093C191.043 320.458 189.903 321.655 188.584 322.633V327.554L184.574 329.731ZM178.523 313.571V322.757L183.349 319.978C184.582 319.303 185.767 318.546 186.898 317.713C187.703 317.04 188.351 316.201 188.797 315.253C189.287 314.206 189.536 313.063 189.524 311.908C189.579 311.1 189.381 310.296 188.956 309.607C188.774 309.361 188.525 309.173 188.239 309.063C187.953 308.953 187.642 308.927 187.342 308.987C185.698 309.471 184.137 310.199 182.711 311.147L178.523 313.571ZM178.523 299.908V307.855L181.93 305.89C183.971 304.722 185.23 303.961 185.727 303.589C186.608 302.945 187.33 302.11 187.839 301.147C188.34 300.184 188.602 299.116 188.602 298.031C188.646 297.638 188.611 297.239 188.499 296.859C188.386 296.479 188.198 296.125 187.945 295.819C187.501 295.412 186.845 295.394 185.976 295.819C185.461 296.031 183.971 296.846 181.522 298.262L178.523 299.908Z" fill="#48AFFF"/>
</g>
<path d="M469.088 424.103V187.907L232.215 183.252V417.536C231.363 420.138 232.481 422.846 235.657 424.616L343.128 488.015C348.682 491.307 358.476 491.006 364.97 487.342L463.73 431.837C467.598 429.696 469.407 426.829 469.088 424.103Z" fill="url(#paint1_linear_195_338)"/>
<path d="M343.109 250.474L235.656 187.075C230.084 183.801 230.847 178.225 237.43 174.509L336.172 119.004C342.683 115.358 352.46 115.057 358.031 118.331L465.485 181.73C471.056 185.022 470.293 190.58 463.711 194.296L364.969 249.801C358.457 253.447 348.681 253.766 343.109 250.474Z" fill="#B6E0FF"/>
<path d="M324.549 400.51C324.559 398.253 324.028 396.027 323 394.016C321.973 392.006 320.478 390.27 318.641 388.952L238.69 341.837C238.115 341.433 237.443 341.186 236.743 341.12C236.043 341.055 235.337 341.174 234.697 341.465L234.218 341.748L214.346 353.554L301.572 417.536L321.693 405.554C322.155 405.418 322.576 405.168 322.917 404.828V404.828C323.476 404.262 323.91 403.585 324.191 402.841C324.472 402.098 324.594 401.303 324.549 400.51V400.51Z" fill="url(#paint2_linear_195_338)"/>
<path d="M297.954 417.023L217.985 369.872C216.151 368.553 214.66 366.816 213.635 364.806C212.611 362.796 212.082 360.57 212.094 358.315V358.315C212.183 353.908 214.986 351.926 218.34 353.908L298.362 401.094C300.194 402.416 301.684 404.154 302.711 406.163C303.739 408.172 304.273 410.396 304.27 412.651V412.651C304.111 417.023 301.307 418.952 297.954 417.023Z" fill="#9ED5FF"/>
<path d="M324.444 365.341C324.454 363.085 323.923 360.858 322.895 358.848C321.867 356.837 320.373 355.101 318.536 353.784L238.566 306.669C237.995 306.264 237.327 306.017 236.629 305.952C235.932 305.886 235.229 306.006 234.592 306.297C234.421 306.37 234.26 306.465 234.113 306.58L214.223 318.368L301.449 382.368L321.57 370.386C322.032 370.238 322.457 369.991 322.812 369.66V369.66C323.364 369.089 323.793 368.411 324.074 367.668C324.354 366.926 324.48 366.134 324.444 365.341V365.341Z" fill="url(#paint3_linear_195_338)"/>
<path d="M297.829 381.802L217.878 334.704C216.038 333.385 214.542 331.646 213.514 329.632C212.486 327.618 211.956 325.389 211.969 323.129V323.129C212.075 318.722 214.879 316.757 218.232 318.739L298.184 365.855C300.021 367.172 301.515 368.908 302.543 370.919C303.571 372.929 304.102 375.156 304.092 377.412C304.004 381.819 301.2 383.784 297.829 381.802Z" fill="#9ED5FF"/>
<path d="M324.675 330.297C324.677 328.042 324.143 325.818 323.116 323.809C322.088 321.799 320.598 320.062 318.766 318.739L238.797 271.642C238.229 271.231 237.56 270.979 236.861 270.914C236.162 270.848 235.458 270.972 234.822 271.27C234.652 271.337 234.491 271.426 234.343 271.536L214.453 283.341L301.679 347.324L321.8 335.341C322.262 335.201 322.686 334.959 323.042 334.633V334.633C323.596 334.06 324.027 333.379 324.308 332.634C324.589 331.888 324.713 331.093 324.675 330.297Z" fill="url(#paint4_linear_195_338)"/>
<path d="M298.059 346.74L218.108 299.624C216.271 298.307 214.776 296.571 213.749 294.56C212.721 292.55 212.19 290.323 212.199 288.067C212.306 283.66 215.109 281.695 218.463 283.677L298.361 330.775C300.2 332.094 301.696 333.833 302.724 335.847C303.752 337.861 304.282 340.09 304.269 342.35V342.35C304.234 346.757 301.43 348.722 298.059 346.74Z" fill="#9ED5FF"/>
<path d="M324.675 295.2C324.684 292.943 324.153 290.716 323.125 288.706C322.098 286.696 320.603 284.959 318.766 283.642L238.797 236.491C238.225 236.087 237.557 235.84 236.86 235.774C236.162 235.709 235.459 235.828 234.822 236.12C234.651 236.193 234.49 236.288 234.343 236.403L214.453 248.19L301.679 312.191L321.8 300.208C322.263 300.061 322.687 299.813 323.042 299.483V299.483C323.59 298.915 324.017 298.244 324.297 297.507C324.578 296.771 324.706 295.986 324.675 295.2V295.2Z" fill="url(#paint5_linear_195_338)"/>
<path d="M298.059 311.66L218.108 264.562C216.269 263.243 214.772 261.504 213.745 259.49C212.717 257.477 212.187 255.247 212.199 252.987V252.987C212.306 248.598 215.109 246.615 218.463 248.598L298.361 295.713C300.198 297.03 301.693 298.766 302.72 300.777C303.748 302.787 304.279 305.014 304.269 307.27C304.234 311.677 301.431 313.642 298.059 311.66Z" fill="#9ED5FF"/>
<path d="M452.143 252.421L377.213 295.589V283.961L452.143 240.81V252.421Z" fill="#B6E0FF"/>
<path d="M452.142 274.757L429.164 287.996V276.368L452.142 263.129V274.757Z" fill="#B6E0FF"/>
<path d="M420.436 293.023L377.213 317.908V306.297L420.436 281.394V293.023Z" fill="#B6E0FF"/>
<path d="M452.143 296.226L398.824 327.023V315.394L452.143 284.615V296.226Z" fill="#B6E0FF"/>
<path d="M390.095 332.049L377.213 339.377V327.766L390.095 320.439V332.049Z" fill="#B6E0FF"/>
<path d="M452.143 318.669L377.213 361.837V350.209L452.143 307.058V318.669Z" fill="#B6E0FF"/>
<path d="M452.142 341.076L429.164 354.333V342.704L452.142 329.465V341.076Z" fill="#B6E0FF"/>
<path d="M420.436 359.359L377.213 384.244V372.616L420.436 347.731V359.359Z" fill="#B6E0FF"/>
<path d="M452.143 362.563L398.824 393.342V381.731L452.143 350.934V362.563Z" fill="#B6E0FF"/>
<path d="M390.095 398.386L377.213 405.713V394.103L390.095 386.758V398.386Z" fill="#B6E0FF"/>
<path d="M452.143 394.262L377.213 437.413V415.359L452.143 372.209V394.262Z" fill="#B8E1FF"/>
<path d="M452.142 394.262L434.15 382.581L452.142 372.209V394.262Z" fill="#9ED5FF"/>
<path d="M428.048 141.376C417.189 122.703 388.303 109.323 354.289 109.323C320.275 109.323 291.406 122.703 280.547 141.376H275.881V157.677C275.881 184.367 310.977 206.013 354.289 206.013C397.6 206.013 432.696 184.367 432.696 157.677V141.376H428.048Z" fill="#E06703"/>
<path style="mix-blend-mode:overlay" d="M289.49 157.677V184.845C307.34 200.438 331.134 206.084 358.086 206.084V189.783L289.49 157.677Z" fill="url(#paint6_linear_195_338)"/>
<path d="M354.306 189.712C397.61 189.712 432.714 168.071 432.714 141.376C432.714 114.68 397.61 93.0393 354.306 93.0393C311.003 93.0393 275.898 114.68 275.898 141.376C275.898 168.071 311.003 189.712 354.306 189.712Z" fill="#FFD81D"/>
<path style="mix-blend-mode:overlay" d="M301.91 177.27L415.042 110.827C400.687 100.013 378.916 93.1278 354.502 93.0393L275.881 141.376C275.881 155.641 285.941 168.42 301.91 177.27Z" fill="url(#paint7_linear_195_338)"/>
<path style="mix-blend-mode:overlay" d="M354.288 189.712C355.495 189.712 356.666 189.712 357.837 189.606L432.359 145.871C433.283 139.942 432.393 133.872 429.804 128.455L329.182 187.128C337.439 188.847 345.853 189.713 354.288 189.712V189.712Z" fill="url(#paint8_linear_195_338)"/>
<path d="M354.306 175.571C388.888 175.571 416.922 159.286 416.922 139.199C416.922 119.111 388.888 102.827 354.306 102.827C319.724 102.827 291.689 119.111 291.689 139.199C291.689 159.286 319.724 175.571 354.306 175.571Z" fill="#F9B815"/>
<path style="mix-blend-mode:overlay" opacity="0.5" d="M342.418 175.022L415.698 131.96C412.629 123.323 404.254 115.818 392.632 110.597C383.932 108.681 375.05 107.714 366.141 107.712L295.168 151.305C302.531 163.376 320.399 172.562 342.418 175.022Z" fill="url(#paint9_linear_195_338)"/>
<path d="M354.29 102.827C319.708 102.827 291.674 119.11 291.674 139.199C291.7 140.992 291.945 142.774 292.401 144.509C296.837 126.951 322.813 113.446 354.29 113.446C385.767 113.446 411.743 126.933 416.179 144.455C416.635 142.721 416.88 140.938 416.906 139.146C416.906 119.11 388.854 102.827 354.29 102.827Z" fill="#DD7105"/>
<path style="mix-blend-mode:overlay" d="M354.395 102.827C348.256 102.822 342.129 103.355 336.084 104.42V115.039C342.127 113.959 348.255 113.42 354.395 113.429C374.658 113.429 392.596 119.039 404.076 127.712V117.092C392.614 108.438 374.658 102.827 354.395 102.827Z" fill="url(#paint10_linear_195_338)"/>
<path d="M315.483 150.951V146.933L303.312 153.942L299.852 151.942V155.978L303.312 157.978L307.854 155.358L324.834 165.128L327.922 163.341V159.323L313.141 152.314L315.483 150.951Z" fill="#CE5800"/>
<path d="M339.773 146.792L337.485 143.606L326.75 139.553L317.328 143.217V147.641C317.33 147.922 317.366 148.201 317.435 148.473C317.698 149.375 318.165 150.205 318.801 150.898C319.435 151.559 320.137 152.152 320.895 152.668H320.983C321.744 153.233 322.538 153.753 323.361 154.225C326.316 155.994 329.622 157.099 333.049 157.464C335.879 157.834 338.755 157.301 341.264 155.942C341.938 155.644 342.533 155.192 343.001 154.624C343.469 154.055 343.798 153.385 343.961 152.668V152.668V148.208L342.559 149.146C341.739 148.242 340.802 147.45 339.773 146.792V146.792ZM332.144 152.491C331.753 152.491 322.953 148.668 322.225 148.349C322.16 147.85 322.262 147.343 322.516 146.908C322.769 146.473 323.16 146.133 323.627 145.942C325.102 145.166 326.792 144.899 328.435 145.181C330.702 145.518 332.876 146.313 334.823 147.517C336.519 148.282 337.937 149.549 338.886 151.146C336.651 151.624 332.428 152.526 332.073 152.491H332.144Z" fill="#CE5800"/>
<path d="M353.863 144.455L347.085 141.57L360.588 144.615L364.598 142.296V140.526L366.195 141.447L377.852 134.739V131.535L380.514 133.057L383.388 131.411V127.376C383.388 127.376 377.817 126.331 377.355 126.066L374.765 124.721L389.563 127.854L392.668 126.084V122.048L388.48 121.907L383.885 121.022L382.11 119.977L383.885 120.562C383.803 120.009 383.623 119.475 383.353 118.986C383.015 118.562 369.318 111.907 369.318 111.907V115.924L375.155 119.287L371.695 118.615L367.951 119.623L372.227 121.5L365.645 120.101L360.038 117.252V121.093L351.734 123.659L353.65 124.951L349.818 127.146L345.683 125.517V129.535L359.736 137.624L345.311 135.854L346.003 138.509L343.82 130.597L342.17 131.553V130.349L339.739 128.969V133.004L341.691 139.146C340.52 138.632 339.722 138.296 339.739 138.278C339.757 138.261 330.389 134.367 330.389 134.367V138.385L350.829 150.155L353.916 148.385L353.863 144.455ZM360.588 124.986V121.588L376.823 130.933L365.343 135.022L362.167 133.252L367.987 129.907V125.889L361.901 127.464L362.93 128.845L358.672 131.305L354.644 129.039L353.987 128.774L360.588 124.986Z" fill="#CE5800"/>
<path d="M384.169 158.951V156.987L380.904 155.96V159.978C381.424 160.394 381.9 160.862 382.324 161.376L381.845 162.013L369.336 159.783L366.727 157.411C366.969 156.929 367.362 156.538 367.845 156.296C368.768 155.795 369.812 155.557 370.861 155.606C372.119 155.638 373.36 155.908 374.517 156.402L376.593 154.084V150.048H368.803C367.481 150.892 366.201 151.802 364.971 152.774L366.142 153.429C365.567 153.619 365.014 153.868 364.492 154.172C364.234 154.32 363.99 154.492 363.764 154.686L363.143 154.119L361.937 153.659V157.464V157.854C361.939 158.152 361.975 158.449 362.043 158.739C362.702 160.307 363.814 161.644 365.237 162.579C363.463 161.783 362.025 161.199 361.883 161.164C361.387 161.004 353.012 157.5 353.012 157.5V161.517L373.452 173.287L376.539 171.518V167.535C376.876 167.535 377.196 167.659 377.533 167.677C380.199 168.083 382.926 167.637 385.322 166.402C386.978 165.447 387.795 164.349 387.771 163.11V159.146L385.056 157.694L384.169 158.951Z" fill="#CE5800"/>
<path d="M404.06 149.517L402.285 150.544C401.558 149.78 400.749 149.097 399.872 148.509C398.648 146.739 395.951 143.057 395.951 143.057L385.607 141.075L379.716 144.261L380.337 145.447L380.071 145.571C379.611 145.843 379.178 146.157 378.776 146.509L377.285 145.376V149.358C377.29 149.62 377.32 149.881 377.374 150.137C377.637 151.039 378.104 151.869 378.74 152.562C380.065 153.931 381.598 155.084 383.282 155.978C386.237 157.751 389.543 158.862 392.97 159.234C395.801 159.604 398.676 159.071 401.185 157.712C401.904 157.404 402.532 156.917 403.007 156.297C403.483 155.677 403.79 154.945 403.9 154.172L404.06 149.517ZM383.691 147.588C385.162 146.823 386.844 146.555 388.481 146.827C390.754 147.16 392.934 147.956 394.887 149.163C396.5 149.926 397.874 151.113 398.861 152.597C396.909 153.535 393.982 154.863 393.982 154.863L383.336 149.978L382.271 149.163C382.384 148.816 382.568 148.497 382.813 148.225C383.057 147.954 383.356 147.737 383.691 147.588V147.588Z" fill="#CE5800"/>
<path d="M324.817 161.11L307.836 151.323L303.294 153.942L299.834 151.96L312.024 144.88L315.484 146.863L310.941 149.482L327.922 159.252L324.817 161.11Z" fill="#F9B815"/>
<path d="M323.344 150.332C321.664 149.432 320.132 148.28 318.802 146.916C318.165 146.216 317.698 145.381 317.436 144.473C317.202 143.75 317.253 142.966 317.578 142.278C318.145 141.254 319.011 140.427 320.062 139.907C322.578 138.552 325.46 138.025 328.295 138.402C331.774 138.776 335.13 139.906 338.125 141.712C341.425 143.606 343.323 145.482 343.856 147.34C344.388 149.199 343.501 150.756 341.247 152.048C338.737 153.404 335.865 153.943 333.032 153.588C329.605 153.216 326.299 152.105 323.344 150.332V150.332ZM326.396 148.42C328.374 149.627 330.578 150.422 332.873 150.756C334.523 151.038 336.221 150.783 337.716 150.031C338.247 149.821 338.674 149.414 338.909 148.895C339.144 148.377 339.168 147.788 338.976 147.252C338.035 145.587 336.578 144.27 334.824 143.5C332.877 142.291 330.704 141.49 328.437 141.146C326.792 140.878 325.104 141.151 323.628 141.924C322.351 142.65 321.854 143.588 322.297 144.703C322.741 145.818 324.054 147.057 326.396 148.42V148.42Z" fill="#F9B815"/>
<path d="M350.775 146.225L330.299 134.402L333.386 132.632L342.471 137.854L339.65 129.004L343.801 126.615L345.984 134.526L364.561 138.208L360.551 140.509L346.782 137.376L347.687 140.792L353.862 144.332L350.775 146.225Z" fill="#F9B815"/>
<path d="M366.194 137.376L345.754 125.606L357.127 119.057L360.587 121.039L352.319 125.818L356.843 128.42L364.544 123.977L367.986 125.977L360.286 130.296L365.857 133.5L374.409 128.562L377.852 130.544L366.194 137.376Z" fill="#F9B815"/>
<path d="M380.513 129.039L360.072 117.269L363.089 115.5L382.997 119.747L369.334 111.924L372.209 110.261L392.649 122.031L389.544 123.8L370.026 119.694L383.352 127.358L380.513 129.039Z" fill="#F9B815"/>
<path d="M373.522 169.323L353.082 157.553L356.169 155.783L376.61 167.464L373.522 169.323Z" fill="#F9B815"/>
<path d="M380.904 155.96L385.162 154.951C385.869 155.435 386.47 156.055 386.93 156.776C387.391 157.497 387.701 158.303 387.842 159.146C387.842 160.385 387.043 161.482 385.393 162.42C382.998 163.661 380.272 164.113 377.604 163.712C374.213 163.325 370.945 162.214 368.022 160.456C364.616 158.509 362.699 156.597 362.06 154.756C361.422 152.916 362.309 151.376 364.456 150.137C366.528 149.018 368.89 148.549 371.234 148.792C373.061 148.942 374.856 149.366 376.557 150.048L374.481 152.385C373.324 151.89 372.084 151.62 370.826 151.588C369.777 151.525 368.731 151.758 367.809 152.261C367.323 152.447 366.93 152.818 366.717 153.292C366.505 153.767 366.489 154.306 366.674 154.792C367.677 156.412 369.149 157.689 370.897 158.456C372.908 159.72 375.142 160.591 377.479 161.022C378.963 161.306 380.499 161.088 381.844 160.402C382.185 160.256 382.471 160.006 382.662 159.688C382.853 159.371 382.939 159.002 382.909 158.633C382.579 157.533 381.868 156.586 380.904 155.96V155.96Z" fill="#F9B815"/>
<path d="M383.405 151.978C381.724 151.078 380.192 149.926 378.863 148.562C378.229 147.86 377.763 147.025 377.496 146.119C377.263 145.396 377.313 144.612 377.638 143.924C378.213 142.9 379.085 142.073 380.14 141.553C382.65 140.196 385.526 139.669 388.355 140.048C391.835 140.422 395.19 141.552 398.185 143.358C401.485 145.252 403.384 147.128 403.916 148.986C404.448 150.845 403.561 152.402 401.308 153.694C398.798 155.05 395.925 155.589 393.093 155.234C389.665 154.862 386.359 153.751 383.405 151.978V151.978ZM386.457 150.066C388.435 151.273 390.638 152.068 392.933 152.402C394.584 152.684 396.282 152.43 397.777 151.677C398.307 151.467 398.735 151.06 398.97 150.541C399.205 150.023 399.229 149.434 399.037 148.898C398.095 147.233 396.639 145.916 394.885 145.146C392.933 143.934 390.753 143.132 388.479 142.792C386.84 142.516 385.156 142.79 383.689 143.571C382.411 144.296 381.914 145.234 382.358 146.349C383.292 147.993 384.728 149.295 386.457 150.066V150.066Z" fill="#F9B815"/>
<g style="mix-blend-mode:overlay">
<path d="M324.817 161.11L307.836 151.34L303.294 153.96L299.834 151.96L312.006 144.88L315.466 146.863L310.924 149.482L327.904 159.27L324.817 161.11Z" fill="url(#paint11_linear_195_338)"/>
<path d="M323.344 150.332C321.654 149.447 320.119 148.293 318.802 146.916C318.163 146.215 317.69 145.38 317.418 144.473C317.193 143.749 317.243 142.968 317.56 142.278C318.144 141.262 319.014 140.437 320.062 139.907C322.575 138.56 325.448 138.034 328.277 138.402C331.757 138.773 335.113 139.903 338.107 141.712C341.407 143.624 343.323 145.482 343.838 147.34C344.352 149.199 343.501 150.756 341.247 152.048C338.733 153.411 335.853 153.95 333.014 153.588C329.592 153.215 326.292 152.104 323.344 150.332V150.332ZM326.396 148.42C328.367 149.63 330.565 150.425 332.855 150.756C334.505 151.04 336.204 150.786 337.698 150.031C338.234 149.828 338.668 149.422 338.904 148.901C339.14 148.38 339.16 147.787 338.958 147.252C338.021 145.59 336.571 144.273 334.824 143.5C332.867 142.298 330.69 141.497 328.419 141.146C326.774 140.878 325.086 141.151 323.61 141.925C322.35 142.65 321.836 143.588 322.28 144.703C323.218 146.35 324.66 147.652 326.396 148.42V148.42Z" fill="url(#paint12_linear_195_338)"/>
<path d="M350.757 146.225L330.299 134.402L333.404 132.632L342.471 137.854L339.65 129.004L343.819 126.597L346.002 134.509L364.561 138.19L360.551 140.491L346.765 137.376L347.687 140.792L353.844 144.332L350.757 146.225Z" fill="url(#paint13_linear_195_338)"/>
<path d="M366.177 137.376L345.736 125.517L357.11 118.969L360.57 120.969L352.301 125.73L356.826 128.331L364.526 123.907L367.969 125.889L360.268 130.314L365.839 133.517L374.409 128.597L377.834 130.579L366.177 137.376Z" fill="url(#paint14_linear_195_338)"/>
<path d="M380.495 129.039L360.055 117.269L363.071 115.5L382.997 119.747L369.334 111.924L372.209 110.261L392.649 122.031L389.544 123.8L370.026 119.694L383.352 127.376L380.495 129.039Z" fill="url(#paint15_linear_195_338)"/>
<path d="M373.505 169.323L353.064 157.553L356.152 155.783L376.61 167.464L373.505 169.323Z" fill="url(#paint16_linear_195_338)"/>
<path d="M380.887 155.96L385.163 154.951C385.868 155.435 386.467 156.056 386.924 156.777C387.382 157.498 387.688 158.304 387.825 159.146C387.825 160.385 387.026 161.482 385.394 162.42C382.995 163.668 380.261 164.12 377.587 163.712C374.199 163.321 370.934 162.217 368.005 160.473C364.616 158.509 362.682 156.615 362.061 154.756C361.44 152.898 362.292 151.376 364.439 150.137C366.512 149.02 368.873 148.551 371.217 148.792C373.043 148.952 374.836 149.376 376.54 150.048L374.446 152.385C373.296 151.89 372.061 151.62 370.809 151.588C369.761 151.541 368.72 151.773 367.792 152.261C367.306 152.447 366.913 152.818 366.701 153.292C366.488 153.767 366.472 154.306 366.657 154.792C367.03 155.836 368.431 157.057 370.88 158.456C372.883 159.726 375.111 160.603 377.445 161.04C378.915 161.278 380.424 161.049 381.756 160.385C382.101 160.241 382.39 159.992 382.585 159.674C382.779 159.357 382.868 158.986 382.839 158.615C382.517 157.531 381.827 156.592 380.887 155.96Z" fill="url(#paint17_linear_195_338)"/>
<path d="M383.405 151.978C381.714 151.093 380.18 149.939 378.862 148.562C378.224 147.861 377.751 147.026 377.478 146.119C377.261 145.394 377.312 144.616 377.62 143.924C378.205 142.908 379.074 142.083 380.122 141.553C382.635 140.206 385.509 139.68 388.337 140.048C391.818 140.419 395.173 141.549 398.167 143.358C401.467 145.27 403.384 147.128 403.898 148.986C404.413 150.845 403.561 152.402 401.308 153.694C398.797 155.066 395.913 155.606 393.075 155.234C389.653 154.861 386.353 153.75 383.405 151.978V151.978ZM386.439 150.066C388.418 151.271 390.621 152.065 392.915 152.402C394.566 152.686 396.265 152.432 397.759 151.677C398.295 151.474 398.729 151.068 398.965 150.547C399.201 150.026 399.22 149.433 399.019 148.898C398.082 147.236 396.632 145.919 394.885 145.146C392.928 143.944 390.75 143.143 388.479 142.792C386.834 142.525 385.147 142.799 383.671 143.57C383.133 143.774 382.695 144.177 382.447 144.694C382.2 145.211 382.161 145.804 382.34 146.349C383.274 147.993 384.71 149.295 386.439 150.066V150.066Z" fill="url(#paint18_linear_195_338)"/>
</g>
<path d="M234.256 485.484C234.256 485.484 233.724 485.484 233.6 486.97C233.475 488.457 232.748 489.537 233.759 490.209C235.2 491.013 236.856 491.347 238.497 491.165C239.209 490.949 239.898 490.665 240.555 490.316C240.874 490.174 248.451 486.315 248.451 486.315C248.451 486.315 249.019 485.519 248.806 484.988C248.636 484.587 248.371 484.233 248.034 483.955C247.697 483.678 247.299 483.486 246.872 483.395C246.606 483.307 242.667 483.661 241.549 483.749C240.135 483.656 238.733 483.431 237.361 483.077L234.256 485.484Z" fill="#343499"/>
<path d="M233.316 488.493C233.412 488.783 233.563 489.054 233.76 489.289C234.965 490.035 236.371 490.393 237.787 490.316C238.728 490.316 238.497 489.484 239.562 489.059C240.291 488.805 241.073 488.744 241.833 488.882C242.17 488.882 247.83 485.802 248.167 485.537C248.504 485.271 248.611 484.528 248.611 484.492C248.724 484.643 248.814 484.81 248.877 484.988C249.09 485.519 248.522 486.315 248.522 486.315C248.522 486.315 240.946 490.174 240.626 490.316C239.969 490.665 239.28 490.949 238.568 491.165C236.928 491.347 235.271 491.013 233.831 490.209C233.139 489.785 233.156 489.2 233.316 488.493Z" fill="url(#paint19_linear_195_338)"/>
<path d="M220.061 480.74C220.061 480.74 219.529 480.74 219.404 482.245C219.28 483.749 218.553 484.793 219.546 485.484C220.992 486.289 222.657 486.618 224.302 486.422C225.012 486.209 225.701 485.931 226.36 485.59C226.679 485.448 234.256 481.59 234.256 481.59C234.256 481.59 234.823 480.776 234.61 480.245C234.438 479.847 234.172 479.496 233.836 479.222C233.499 478.948 233.102 478.758 232.676 478.669C232.393 478.581 228.471 478.917 227.353 479.006C225.939 478.926 224.537 478.706 223.166 478.351L220.061 480.74Z" fill="#343499"/>
<path d="M219.12 483.696C219.201 483.99 219.346 484.261 219.545 484.492C220.758 485.238 222.168 485.601 223.591 485.537C224.531 485.537 224.301 484.705 225.365 484.28C226.094 484.026 226.877 483.966 227.636 484.103C227.974 484.103 233.634 481.006 233.971 480.758C234.308 480.51 234.397 479.731 234.414 479.696C234.514 479.855 234.602 480.021 234.68 480.192C234.893 480.723 234.326 481.537 234.326 481.537C234.326 481.537 226.749 485.395 226.43 485.537C225.771 485.877 225.082 486.156 224.372 486.369C222.727 486.565 221.062 486.236 219.616 485.431C218.924 485.006 218.96 484.422 219.12 483.696Z" fill="url(#paint20_linear_195_338)"/>
<path d="M234.593 425.572L229.891 422.864C229.789 422.777 229.676 422.705 229.553 422.651C229.299 422.549 229.023 422.506 228.749 422.528C228.475 422.549 228.21 422.634 227.974 422.775L211.579 432.156C210.898 432.549 210.332 433.114 209.939 433.794C209.547 434.475 209.341 435.247 209.344 436.032V450.368C209.341 450.657 209.41 450.941 209.543 451.197C209.676 451.453 209.869 451.673 210.107 451.838V451.838H210.196L212.201 453.218L215.288 454.811L220.256 447.306L228.507 442.652C229.192 442.261 229.761 441.697 230.157 441.016C230.552 440.336 230.761 439.562 230.76 438.775V431.466L234.593 425.572Z" fill="#4343C9"/>
<path d="M216.938 454.811L233.315 445.554C233.998 445.161 234.565 444.596 234.961 443.916C235.356 443.236 235.566 442.464 235.569 441.678V427.2C235.597 426.867 235.53 426.532 235.375 426.235C235.22 425.939 234.984 425.691 234.695 425.523C234.405 425.354 234.073 425.271 233.738 425.283C233.403 425.295 233.078 425.401 232.801 425.59L216.406 434.988C215.727 435.379 215.163 435.941 214.77 436.619C214.378 437.296 214.171 438.064 214.17 438.846V453.2C214.142 453.534 214.209 453.868 214.364 454.165C214.519 454.462 214.755 454.709 215.044 454.878C215.334 455.046 215.666 455.129 216.001 455.118C216.336 455.106 216.661 455 216.938 454.811Z" fill="#867CE2"/>
<path d="M218.02 431.076C218.02 431.076 217.896 449.483 218.02 452.97C218.144 456.457 219.014 465.36 218.96 471.519C218.907 477.678 218.872 479.891 220.078 480.74C221.285 481.59 226.714 480.652 227.406 479.607C228.098 478.563 227.601 464.192 228.01 461.43C228.418 458.669 230.174 447.82 230.174 447.82L229.394 434.97L218.02 431.076Z" fill="#4B4BAA"/>
<path d="M241.246 435.82C241.246 435.82 243.925 456.28 243.712 461.041C243.499 465.802 242.328 482.174 241.938 483.501C241.548 484.829 241.157 485.696 239.365 485.979C237.905 486.31 236.389 486.31 234.929 485.979C234.375 485.844 233.892 485.504 233.579 485.028C233.266 484.551 233.147 483.974 233.244 483.413C233.439 482.174 234.734 465.519 234.326 462.846C233.918 460.174 228.897 448.687 228.205 444.386C227.754 441.266 227.487 438.122 227.406 434.97L241.246 435.82Z" fill="#6666D3"/>
<path d="M242.275 444.121C241.021 443.849 239.892 443.17 239.064 442.191C238.202 440.793 237.46 439.325 236.846 437.802L241.246 435.82L242.275 444.121Z" fill="#4B4BAA"/>
<path d="M218.269 393.023C218.269 393.023 212.289 405.412 211.296 408.138C210.302 410.864 210.409 411.89 211.296 413.253L217.435 422.492L223.468 415.041L225.047 402.811L222.172 394.881L218.269 393.023Z" fill="#867CE2"/>
<path d="M246.676 411.342C246.676 411.342 245.239 405.059 243.926 401.501C242.613 397.943 241.619 397.182 240.235 396.191C238.851 395.2 237.201 393.926 237.201 393.926L224.124 390.846C224.124 390.846 219.316 391.112 218.269 392.97C216.583 395.926 215.608 427.678 216.406 429.961C217.205 432.244 220.984 435.483 227.709 437.2C234.433 438.917 241.158 437.961 242.631 436.917C244.103 435.873 244.405 424.528 243.624 419.112C243.346 417.661 243.485 416.162 244.025 414.787C244.565 413.412 245.484 412.217 246.676 411.342V411.342Z" fill="#4343C9"/>
<path d="M235.514 393.324C235.155 392.102 234.935 390.843 234.858 389.572C234.826 387.719 234.992 385.867 235.355 384.05L227.601 382.934C228.218 384.43 228.396 386.069 228.113 387.662C227.83 389.254 227.099 390.733 226.004 391.926C227.626 393.079 229.369 394.052 231.203 394.828C232.267 394.935 234.751 394.828 234.751 394.828L235.514 393.324Z" fill="#F4B489"/>
<path d="M237.752 377.448C238.997 379.127 239.624 381.184 239.526 383.271C239.278 386.704 237.929 389.005 236.9 389.235C234.95 389.333 233.04 388.666 231.577 387.377C230.211 385.943 228.756 380.297 228.756 380.297L235.853 374.173L237.752 377.448Z" fill="#FCBF9D"/>
<path d="M237.467 373.129C238.78 373.961 240.253 375.412 240.2 376.881C240.007 378.014 239.468 379.059 238.656 379.873C237.934 378.768 236.929 377.876 235.746 377.288C234.309 376.687 234.167 377.979 234.167 377.979L230.938 373.89C230.938 373.89 234.646 371.342 237.467 373.129Z" fill="#8480CE"/>
<path d="M233.741 373.731L235.391 372.917C233.672 372.105 231.763 371.78 229.873 371.979C229.127 372.088 228.423 372.388 227.828 372.85C227.234 373.313 226.771 373.921 226.484 374.616C225.835 375.13 225.294 375.766 224.892 376.489C224.49 377.212 224.235 378.007 224.141 378.828C223.996 379.9 224.148 380.991 224.579 381.983C225.011 382.975 225.706 383.83 226.59 384.457C228.222 385.536 228.489 386.227 230.937 385.536C231.881 385.237 232.704 384.645 233.285 383.845C233.866 383.046 234.175 382.081 234.166 381.094C233.847 379.412 235.018 380.12 235.941 378.793C236.358 378.166 236.581 377.43 236.581 376.678C236.581 375.925 236.358 375.19 235.941 374.563C235.705 374.215 235.367 373.948 234.973 373.799C234.579 373.65 234.149 373.626 233.741 373.731V373.731Z" fill="#5E56E8"/>
<path d="M237.893 394.014C237.343 393.384 236.75 392.793 236.119 392.244C235.982 392.114 235.812 392.023 235.628 391.983C235.443 391.942 235.251 391.953 235.072 392.014C233.932 392.408 232.711 392.505 231.523 392.297C230.694 392.209 229.892 391.947 229.171 391.53C228.449 391.112 227.824 390.547 227.336 389.873C226.59 388.616 223.964 390.085 224.124 390.899C224.434 391.831 224.963 392.676 225.667 393.362C226.371 394.049 227.229 394.557 228.17 394.846C230.549 395.781 233.146 396.02 235.657 395.536C236.456 395.395 237.095 395.253 237.556 395.129C237.675 395.107 237.785 395.053 237.875 394.973C237.965 394.893 238.031 394.79 238.065 394.674C238.1 394.559 238.103 394.437 238.072 394.32C238.042 394.204 237.98 394.098 237.893 394.014V394.014Z" fill="#867CE2"/>
<path d="M257.552 405.094L259.327 402.333C259.327 402.333 261.101 402.528 261.616 401.607C262.13 400.687 263.017 399.324 262.662 398.209C262.32 397.415 261.752 396.739 261.03 396.262C261.747 394.846 262.341 393.372 262.804 391.855C262.782 391.76 262.735 391.672 262.668 391.602C262.6 391.531 262.515 391.479 262.421 391.452C262.327 391.425 262.228 391.424 262.133 391.448C262.038 391.472 261.951 391.521 261.882 391.589C261.58 391.82 259.469 395.324 259.469 395.324C259.469 395.324 258.227 395.749 257.41 397.943C257.054 398.741 256.798 399.579 256.647 400.439L255.494 402.209L257.552 405.094Z" fill="#FCBF9D"/>
<path d="M257.269 407.306L258.298 405.66L255.299 401.66L254.004 403.855L257.269 407.306Z" fill="#4B4BAA"/>
<path d="M257.392 406.669C257.521 406.863 257.59 407.091 257.59 407.324C257.59 407.557 257.521 407.785 257.392 407.979C255.706 410.864 249.123 421.837 246.622 422.404C244.847 422.811 240.997 417.359 238.921 411.943C236.845 406.528 235.763 403.094 236.455 400.527C237.147 397.961 239.4 395.572 240.926 396.722C242.452 397.873 244.155 399.766 245.539 405.749L246.906 411.713C246.906 411.713 252.051 404.634 252.938 403.536C253.131 403.277 253.351 403.04 253.595 402.828C253.671 402.761 253.761 402.711 253.858 402.681C253.956 402.651 254.059 402.643 254.16 402.656C254.261 402.67 254.357 402.705 254.444 402.759C254.53 402.813 254.604 402.885 254.659 402.97L257.392 406.669Z" fill="#867CE2"/>
<path d="M258.298 405.66L258.67 405.094C258.751 404.98 258.795 404.844 258.795 404.705C258.795 404.565 258.751 404.429 258.67 404.315L256.186 401.094C256.152 401.043 256.106 401.001 256.052 400.972C255.998 400.943 255.937 400.928 255.876 400.928C255.814 400.928 255.754 400.943 255.699 400.972C255.645 401.001 255.599 401.043 255.565 401.094L255.281 401.696L258.298 405.66Z" fill="#F5E6FF"/>
<path d="M232.712 392.492L232.34 392.404C233.279 392.445 234.217 392.313 235.108 392.014C235.287 391.953 235.479 391.942 235.664 391.983C235.848 392.023 236.018 392.114 236.155 392.244C236.786 392.793 237.379 393.384 237.929 394.014C237.986 394.085 238.029 394.166 238.053 394.254C238.077 394.342 238.082 394.433 238.069 394.523C238.056 394.613 238.024 394.699 237.975 394.776C237.927 394.853 237.862 394.919 237.787 394.97C236.275 393.82 234.55 392.978 232.712 392.492V392.492Z" fill="#FFE9F4"/>
<path d="M321.428 507.661V475.696L284.167 474.97V506.634C284.11 506.855 284.134 507.089 284.235 507.293C284.336 507.498 284.507 507.659 284.717 507.749L301.591 517.696C302.131 517.953 302.726 518.078 303.325 518.059C303.923 518.041 304.509 517.88 305.033 517.59L320.54 508.882C321.108 508.528 321.428 508.086 321.428 507.661Z" fill="url(#paint21_linear_195_338)"/>
<path d="M301.555 485.519L284.681 475.572C283.812 475.059 283.918 474.174 284.948 473.59L300.455 464.882C300.98 464.596 301.566 464.438 302.164 464.419C302.762 464.401 303.356 464.523 303.897 464.776L320.771 474.723C321.641 475.236 321.517 476.121 320.505 476.705L304.997 485.413C304.474 485.703 303.888 485.864 303.289 485.882C302.691 485.901 302.096 485.776 301.555 485.519V485.519Z" fill="#9ED5FF"/>
<path d="M350.296 524.51V460.068L313.035 459.342V523.466C312.969 523.685 312.987 523.92 313.086 524.126C313.184 524.332 313.356 524.494 313.567 524.581L330.441 534.546C330.984 534.795 331.577 534.914 332.175 534.896C332.772 534.878 333.357 534.721 333.883 534.44L349.391 525.714C349.644 525.624 349.864 525.462 350.025 525.248C350.186 525.034 350.28 524.778 350.296 524.51Z" fill="url(#paint22_linear_195_338)"/>
<path d="M330.495 469.908L313.621 459.944C312.751 459.43 312.858 458.546 313.887 457.979L329.395 449.253C329.92 448.968 330.505 448.809 331.103 448.791C331.701 448.772 332.295 448.894 332.837 449.147L349.711 459.112C350.58 459.625 350.474 460.51 349.445 461.077L333.937 469.802C333.41 470.084 332.826 470.24 332.228 470.259C331.631 470.277 331.038 470.157 330.495 469.908V469.908Z" fill="#9ED5FF"/>
<path d="M536.317 386.598V315.288L495.135 314.474V385.448C495.063 385.692 495.086 385.954 495.197 386.183C495.309 386.412 495.501 386.592 495.738 386.687L514.422 397.713C515.02 397.99 515.676 398.123 516.335 398.101C516.994 398.08 517.64 397.905 518.219 397.589L535.377 387.943C535.648 387.836 535.882 387.651 536.05 387.412C536.217 387.173 536.31 386.89 536.317 386.598V386.598Z" fill="url(#paint23_linear_195_338)"/>
<path d="M514.404 326.155L495.721 315.147C494.762 314.562 494.887 313.589 496.022 312.952L513.198 303.306C513.777 302.991 514.422 302.815 515.081 302.794C515.741 302.772 516.396 302.905 516.995 303.182L535.679 314.209C536.637 314.775 536.512 315.766 535.377 316.403L518.219 326.049C517.637 326.366 516.987 326.54 516.324 326.559C515.662 326.577 515.003 326.439 514.404 326.155V326.155Z" fill="#9ED5FF"/>
<path d="M180.049 445.767V417.165L146.762 416.51V444.829C146.707 445.026 146.724 445.237 146.812 445.423C146.901 445.608 147.053 445.755 147.241 445.837L162.341 454.687C162.824 454.913 163.353 455.023 163.886 455.007C164.42 454.992 164.942 454.852 165.411 454.599L179.304 446.793C179.836 446.545 180.102 446.138 180.049 445.767Z" fill="url(#paint24_linear_195_338)"/>
<path d="M162.342 425.961L147.242 417.112C146.461 416.651 146.568 415.873 147.491 415.342L161.366 407.536C161.835 407.283 162.357 407.143 162.89 407.128C163.423 407.112 163.953 407.222 164.435 407.448L179.535 416.298C180.316 416.758 180.209 417.554 179.304 418.067L165.411 425.855C164.945 426.115 164.423 426.261 163.889 426.279C163.356 426.298 162.825 426.189 162.342 425.961V425.961Z" fill="#9ED5FF"/>
<g style="mix-blend-mode:lighten" opacity="0.7">
<path d="M342.721 182.066L234.487 118.208C228.88 114.898 229.661 109.234 236.261 105.553L335.73 49.6408C342.277 45.9594 352.143 45.6408 357.75 48.9506L465.984 112.809C471.573 116.119 470.81 121.783 464.209 125.464L364.74 181.394C358.246 185.164 348.399 185.376 342.721 182.066Z" fill="#CCE9FF"/>
</g>
<path style="mix-blend-mode:overlay" opacity="0.4" d="M464.281 125.482L364.812 181.394C358.247 185.075 348.399 185.376 342.792 182.066L234.558 118.208C233.532 117.717 232.65 116.97 231.997 116.04C231.344 115.11 230.943 114.028 230.832 112.898V181.181C230.917 182.335 231.306 183.445 231.961 184.399C232.615 185.354 233.511 186.118 234.558 186.615L342.792 250.474C348.399 253.783 358.265 253.483 364.812 249.801L464.316 194.013C468.06 191.907 469.905 189.146 469.764 186.562V118.402C469.71 120.845 467.865 123.464 464.281 125.482Z" fill="url(#paint25_linear_195_338)"/>
<g style="mix-blend-mode:lighten" opacity="0.4">
<path d="M464.281 125.482L364.812 181.394C358.247 185.075 348.399 185.376 342.792 182.066L234.558 118.208C233.532 117.717 232.65 116.97 231.997 116.04C231.344 115.11 230.943 114.028 230.832 112.898V181.181C230.917 182.335 231.306 183.445 231.961 184.399C232.615 185.354 233.511 186.118 234.558 186.615L342.792 250.474C348.399 253.783 358.265 253.483 364.812 249.801L464.316 194.013C468.06 191.907 469.905 189.146 469.764 186.562V118.402C469.71 120.845 467.865 123.464 464.281 125.482Z" fill="url(#paint26_linear_195_338)"/>
</g>
<path d="M435.322 484.74C440.503 488.732 444.441 494.108 446.678 500.245C450.741 510.864 464.527 521.484 464.527 521.484L519.532 554.404L590.079 513.094L535.075 480.156C535.075 480.156 521.306 469.537 517.331 459.006C515.086 452.889 511.141 447.535 505.958 443.572L451.326 411.855L380.832 453.147L435.322 484.74Z" fill="#48AFFF"/>
<path d="M492.225 427.89C485.606 416.492 467.97 408.315 447.174 408.315C426.379 408.315 408.76 416.492 402.124 427.89H399.285V437.837C399.285 454.156 420.737 467.377 447.192 467.377C473.647 467.377 495.099 454.156 495.099 437.837V427.89H492.225Z" fill="#E06703"/>
<path style="mix-blend-mode:overlay" d="M407.57 437.837V454.457C418.482 463.979 433.014 467.377 449.48 467.377V457.413L407.57 437.837Z" fill="url(#paint27_linear_195_338)"/>
<path d="M447.192 457.413C473.65 457.413 495.099 444.195 495.099 427.891C495.099 411.586 473.65 398.368 447.192 398.368C420.734 398.368 399.285 411.586 399.285 427.891C399.285 444.195 420.734 457.413 447.192 457.413Z" fill="#FFD81D"/>
<path style="mix-blend-mode:overlay" d="M415.203 449.82L484.295 409.218C475.53 402.616 462.223 398.386 447.318 398.351L399.287 427.89C399.287 436.598 405.444 444.421 415.203 449.82Z" fill="url(#paint28_linear_195_338)"/>
<path style="mix-blend-mode:overlay" d="M447.176 457.413C447.921 457.413 448.631 457.413 449.358 457.413L494.852 430.687C495 429.78 495.078 428.863 495.083 427.944C495.063 425.216 494.458 422.525 493.309 420.05L431.846 455.891C436.89 456.922 442.027 457.432 447.176 457.413V457.413Z" fill="url(#paint29_linear_195_338)"/>
<path d="M447.192 448.776C468.32 448.776 485.447 438.831 485.447 426.563C485.447 414.295 468.32 404.351 447.192 404.351C426.065 404.351 408.938 414.295 408.938 426.563C408.938 438.831 426.065 448.776 447.192 448.776Z" fill="#F9B815"/>
<path style="mix-blend-mode:overlay" opacity="0.5" d="M439.934 448.457L484.665 422.138C482.785 416.828 477.657 412.28 470.577 409.094C465.27 407.92 459.85 407.326 454.413 407.324L411.102 433.961C415.573 441.324 426.467 446.935 439.934 448.457Z" fill="url(#paint30_linear_195_338)"/>
<path d="M447.174 404.351C426.06 404.351 408.938 414.297 408.938 426.563C408.952 427.657 409.101 428.745 409.381 429.802C412.078 419.059 427.958 410.811 447.174 410.811C466.39 410.811 482.288 419.059 484.985 429.802C485.266 428.745 485.415 427.657 485.429 426.563C485.429 414.297 468.307 404.351 447.174 404.351Z" fill="#DD7105"/>
<path style="mix-blend-mode:overlay" d="M447.245 404.35C443.491 404.343 439.744 404.668 436.049 405.324V411.802C439.744 411.14 443.491 410.809 447.245 410.811C459.665 410.811 470.577 414.244 477.568 419.536V413.076C470.595 407.766 459.612 404.35 447.245 404.35Z" fill="url(#paint31_linear_195_338)"/>
<path d="M468.341 438.74C469.627 437.616 470.454 436.061 470.665 434.368V434.368V430.103L467.755 428.899C467.117 428.404 466.441 427.961 465.733 427.572C463.062 426.075 460.066 425.249 457.003 425.165C452.86 425.271 448.769 426.11 444.92 427.643L435.214 422.227C437.51 421.679 439.919 421.846 442.116 422.705L447.439 418.581V414.651L440.608 417.023C439.923 416.988 439.236 416.988 438.55 417.023C435.474 417.117 432.452 417.853 429.678 419.182L428.419 418.492L428.898 418.12V416.351L423.681 416.067V422.244L425.455 420.935L426.218 421.359C425.511 421.877 424.862 422.47 424.284 423.129L422.688 422.581V427.112C422.847 429.147 424.302 430.917 427.017 432.421C429.804 433.942 432.909 434.791 436.084 434.899C439.899 435.008 443.702 434.408 447.297 433.129L457.713 438.917C456.242 439.21 454.737 439.3 453.241 439.183C452.18 439.103 451.129 438.926 450.101 438.652L450.349 437.802L442.684 438.386V442.315C446.14 443.782 449.858 444.535 453.614 444.528C457.094 444.508 460.528 443.729 463.675 442.244L468.199 444.758L471.748 442.669V438.74H468.341ZM436.013 429.413C434.884 429.347 433.782 429.039 432.783 428.51C432.372 428.316 432.003 428.043 431.698 427.706C431.393 427.368 431.159 426.974 431.009 426.545C430.898 426.143 430.895 425.718 431.001 425.314C431.107 424.91 431.318 424.541 431.612 424.244L440.2 429.023C438.835 429.378 437.42 429.51 436.013 429.413ZM461.563 436.864L451.875 431.466C453.482 430.875 455.184 430.587 456.897 430.616C458.237 430.658 459.549 431.009 460.729 431.643C461.245 431.868 461.703 432.208 462.066 432.638C462.429 433.068 462.688 433.575 462.823 434.121C462.881 434.648 462.798 435.181 462.583 435.665C462.368 436.15 462.028 436.57 461.599 436.882L461.563 436.864Z" fill="#E06703"/>
<path d="M457.696 434.846L447.281 429.059C443.685 430.337 439.882 430.937 436.067 430.828C432.892 430.72 429.787 429.871 427 428.351C424.285 426.828 422.83 425.059 422.671 423.041C422.511 421.023 423.682 419.094 426.219 417.271L423.771 415.908L427.319 413.802L429.661 415.253C432.435 413.923 435.457 413.188 438.533 413.094C441.567 413.012 444.586 413.548 447.405 414.669L442.082 418.793C439.884 417.934 437.475 417.767 435.18 418.315L444.885 423.731C448.761 422.215 452.877 421.399 457.039 421.324C460.102 421.408 463.098 422.234 465.769 423.731C468.768 425.395 470.4 427.271 470.666 429.536C470.932 431.802 469.726 433.908 467.118 436.05L471.766 438.652L468.218 440.74L463.658 438.262C460.51 439.743 457.078 440.528 453.597 440.563C449.841 440.555 446.125 439.796 442.667 438.333L448.327 434.156C449.9 434.742 451.55 435.093 453.225 435.2C454.724 435.288 456.229 435.169 457.696 434.846V434.846ZM431.613 420.333C431.318 420.629 431.107 420.998 431.002 421.402C430.896 421.806 430.899 422.231 431.01 422.634C431.16 423.062 431.394 423.457 431.699 423.794C432.004 424.132 432.373 424.405 432.784 424.598C433.783 425.127 434.885 425.435 436.014 425.501C437.421 425.598 438.836 425.467 440.201 425.112L431.613 420.333ZM461.599 432.952C462.033 432.646 462.378 432.231 462.599 431.75C462.82 431.268 462.91 430.736 462.859 430.209C462.724 429.664 462.465 429.156 462.102 428.727C461.739 428.297 461.282 427.956 460.766 427.731C459.585 427.098 458.273 426.746 456.933 426.705C455.221 426.675 453.518 426.964 451.912 427.554L461.599 432.952Z" fill="#FFD81D"/>
<g style="mix-blend-mode:overlay">
<path d="M457.696 434.846L447.281 429.059C443.685 430.337 439.882 430.937 436.067 430.828C432.892 430.72 429.787 429.871 427 428.351C424.285 426.828 422.83 425.059 422.671 423.041C422.511 421.023 423.682 419.094 426.219 417.271L423.771 415.908L427.319 413.802L429.661 415.253C432.435 413.923 435.457 413.188 438.533 413.094C441.567 413.012 444.586 413.548 447.405 414.669L442.082 418.793C439.884 417.934 437.475 417.767 435.18 418.315L444.885 423.731C448.761 422.215 452.877 421.399 457.039 421.324C460.102 421.408 463.098 422.234 465.769 423.731C468.768 425.395 470.4 427.271 470.666 429.536C470.932 431.802 469.726 433.908 467.118 436.05L471.766 438.652L468.218 440.74L463.658 438.262C460.51 439.743 457.078 440.528 453.597 440.563C449.841 440.555 446.125 439.796 442.667 438.333L448.327 434.156C449.9 434.742 451.55 435.093 453.225 435.2C454.724 435.288 456.229 435.169 457.696 434.846V434.846ZM431.613 420.333C431.318 420.629 431.107 420.998 431.002 421.402C430.896 421.806 430.899 422.231 431.01 422.634C431.16 423.062 431.394 423.457 431.699 423.794C432.004 424.132 432.373 424.405 432.784 424.598C433.783 425.127 434.885 425.435 436.014 425.501C437.421 425.598 438.836 425.467 440.201 425.112L431.613 420.333ZM461.599 432.952C462.033 432.646 462.378 432.231 462.599 431.75C462.82 431.268 462.91 430.736 462.859 430.209C462.724 429.664 462.465 429.156 462.102 428.727C461.739 428.297 461.282 427.956 460.766 427.731C459.585 427.098 458.273 426.746 456.933 426.705C455.221 426.675 453.518 426.964 451.912 427.554L461.599 432.952Z" fill="url(#paint32_linear_195_338)"/>
</g>
<path d="M417 28.0052L400.995 19L385 28.0052L400.995 37L417 28.0052Z" fill="#E4F4FF"/>
<path d="M401 55L385 45.696V28L401 37.304V55Z" fill="#8EB4D2"/>
<path d="M102.162 190.805L73.0712 174L44 190.805L73.0712 207.589L102.162 190.805Z" fill="#E4F4FF"/>
<path d="M73.0712 239.514L44 222.729V190.805L73.0712 207.589V239.514Z" fill="#8EB4D2"/>
<path d="M102.161 222.729L73.0703 239.514V207.589L102.161 190.805V222.729Z" fill="#A1C7E4"/>
<path d="M594.162 144.805L565.071 128L536 144.805L565.071 161.589L594.162 144.805Z" fill="#E4F4FF"/>
<path d="M565.071 193.514L536 176.729V144.805L565.071 161.589V193.514Z" fill="#8EB4D2"/>
<path d="M594.161 176.729L565.07 193.514V161.589L594.161 144.805V176.729Z" fill="#A1C7E4"/>
<path d="M417 45.696L401 55V37.304L417 28V45.696Z" fill="#A1C7E4"/>
<defs>
<filter id="filter0_i_195_338" x="173.289" y="283.784" width="23.7539" height="51.3188" filterUnits="userSpaceOnUse" color-interpolation-filters="sRGB">
<feFlood flood-opacity="0" result="BackgroundImageFix"/>
<feBlend mode="normal" in="SourceGraphic" in2="BackgroundImageFix" result="shape"/>
<feColorMatrix in="SourceAlpha" type="matrix" values="0 0 0 0 0 0 0 0 0 0 0 0 0 0 0 0 0 0 127 0" result="hardAlpha"/>
<feOffset dx="2" dy="1"/>
<feGaussianBlur stdDeviation="2"/>
<feComposite in2="hardAlpha" operator="arithmetic" k2="-1" k3="1"/>
<feColorMatrix type="matrix" values="0 0 0 0 0 0 0 0 0 0 0 0 0 0 0 0 0 0 0.1 0"/>
<feBlend mode="normal" in2="shape" result="effect1_innerShadow_195_338"/>
</filter>
<linearGradient id="paint0_linear_195_338" x1="189.487" y1="275.766" x2="182.912" y2="264.123" gradientUnits="userSpaceOnUse">
<stop stop-color="#9ED5FF"/>
<stop offset="1" stop-color="#EAF6FF"/>
</linearGradient>
<linearGradient id="paint1_linear_195_338" x1="367.354" y1="336.744" x2="334.634" y2="336.744" gradientUnits="userSpaceOnUse">
<stop stop-color="#CCE9FF"/>
<stop offset="1" stop-color="#EAF6FF"/>
</linearGradient>
<linearGradient id="paint2_linear_195_338" x1="319.467" y1="379.312" x2="218.946" y2="379.312" gradientUnits="userSpaceOnUse">
<stop stop-color="#B5DFFF"/>
<stop offset="1" stop-color="#CCE9FF"/>
</linearGradient>
<linearGradient id="paint3_linear_195_338" x1="319.358" y1="344.143" x2="218.823" y2="344.143" gradientUnits="userSpaceOnUse">
<stop stop-color="#B5DFFF"/>
<stop offset="1" stop-color="#CCE9FF"/>
</linearGradient>
<linearGradient id="paint4_linear_195_338" x1="319.589" y1="309.102" x2="219.054" y2="309.102" gradientUnits="userSpaceOnUse">
<stop stop-color="#B5DFFF"/>
<stop offset="1" stop-color="#CCE9FF"/>
</linearGradient>
<linearGradient id="paint5_linear_195_338" x1="319.587" y1="273.966" x2="219.054" y2="273.966" gradientUnits="userSpaceOnUse">
<stop stop-color="#B5DFFF"/>
<stop offset="1" stop-color="#CCE9FF"/>
</linearGradient>
<linearGradient id="paint6_linear_195_338" x1="132.426" y1="170.155" x2="395.2" y2="186.519" gradientUnits="userSpaceOnUse">
<stop stop-color="#D10B57"/>
<stop offset="1" stop-color="white"/>
</linearGradient>
<linearGradient id="paint7_linear_195_338" x1="108.81" y1="275.058" x2="353.479" y2="120.259" gradientUnits="userSpaceOnUse">
<stop stop-color="#D10B57"/>
<stop offset="1" stop-color="white"/>
</linearGradient>
<linearGradient id="paint8_linear_195_338" x1="244.191" y1="285.695" x2="377.12" y2="169.101" gradientUnits="userSpaceOnUse">
<stop stop-color="#D10B57"/>
<stop offset="1" stop-color="white"/>
</linearGradient>
<linearGradient id="paint9_linear_195_338" x1="177.725" y1="253.536" x2="391.282" y2="118.436" gradientUnits="userSpaceOnUse">
<stop stop-color="#D10B57"/>
<stop offset="1" stop-color="white"/>
</linearGradient>
<linearGradient id="paint10_linear_195_338" x1="297.226" y1="161.925" x2="396.554" y2="99.0815" gradientUnits="userSpaceOnUse">
<stop stop-color="#D10B57"/>
<stop offset="1" stop-color="white"/>
</linearGradient>
<linearGradient id="paint11_linear_195_338" x1="274.017" y1="220.173" x2="315.352" y2="152.912" gradientUnits="userSpaceOnUse">
<stop stop-color="#D10B57"/>
<stop offset="1" stop-color="white"/>
</linearGradient>
<linearGradient id="paint12_linear_195_338" x1="281.842" y1="224.987" x2="323.177" y2="157.709" gradientUnits="userSpaceOnUse">
<stop stop-color="#D10B57"/>
<stop offset="1" stop-color="white"/>
</linearGradient>
<linearGradient id="paint13_linear_195_338" x1="289.702" y1="229.819" x2="331.036" y2="162.541" gradientUnits="userSpaceOnUse">
<stop stop-color="#D10B57"/>
<stop offset="1" stop-color="white"/>
</linearGradient>
<linearGradient id="paint14_linear_195_338" x1="296.392" y1="233.925" x2="337.726" y2="166.665" gradientUnits="userSpaceOnUse">
<stop stop-color="#D10B57"/>
<stop offset="1" stop-color="white"/>
</linearGradient>
<linearGradient id="paint15_linear_195_338" x1="303.205" y1="238.102" x2="344.539" y2="170.842" gradientUnits="userSpaceOnUse">
<stop stop-color="#D10B57"/>
<stop offset="1" stop-color="white"/>
</linearGradient>
<linearGradient id="paint16_linear_195_338" x1="314.047" y1="244.775" x2="355.381" y2="177.514" gradientUnits="userSpaceOnUse">
<stop stop-color="#D10B57"/>
<stop offset="1" stop-color="white"/>
</linearGradient>
<linearGradient id="paint17_linear_195_338" x1="318.537" y1="247.536" x2="359.889" y2="180.275" gradientUnits="userSpaceOnUse">
<stop stop-color="#D10B57"/>
<stop offset="1" stop-color="white"/>
</linearGradient>
<linearGradient id="paint18_linear_195_338" x1="326.112" y1="252.19" x2="367.446" y2="184.93" gradientUnits="userSpaceOnUse">
<stop stop-color="#D10B57"/>
<stop offset="1" stop-color="white"/>
</linearGradient>
<linearGradient id="paint19_linear_195_338" x1="260.503" y1="477.643" x2="212.331" y2="506.467" gradientUnits="userSpaceOnUse">
<stop stop-color="#FFD9EA"/>
<stop offset="1" stop-color="white"/>
</linearGradient>
<linearGradient id="paint20_linear_195_338" x1="246.338" y1="472.864" x2="198.147" y2="501.689" gradientUnits="userSpaceOnUse">
<stop stop-color="#FFD9EA"/>
<stop offset="1" stop-color="white"/>
</linearGradient>
<linearGradient id="paint21_linear_195_338" x1="305.427" y1="496.511" x2="300.283" y2="496.511" gradientUnits="userSpaceOnUse">
<stop stop-color="#CCE9FF"/>
<stop offset="1" stop-color="#EAF6FF"/>
</linearGradient>
<linearGradient id="paint22_linear_195_338" x1="334.291" y1="497.112" x2="329.146" y2="497.112" gradientUnits="userSpaceOnUse">
<stop stop-color="#CCE9FF"/>
<stop offset="1" stop-color="#EAF6FF"/>
</linearGradient>
<linearGradient id="paint23_linear_195_338" x1="518.629" y1="356.28" x2="512.942" y2="356.28" gradientUnits="userSpaceOnUse">
<stop stop-color="#CCE9FF"/>
<stop offset="1" stop-color="#EAF6FF"/>
</linearGradient>
<linearGradient id="paint24_linear_195_338" x1="165.756" y1="435.755" x2="161.159" y2="435.755" gradientUnits="userSpaceOnUse">
<stop stop-color="#CCE9FF"/>
<stop offset="1" stop-color="#EAF6FF"/>
</linearGradient>
<linearGradient id="paint25_linear_195_338" x1="368.84" y1="182.898" x2="334.222" y2="182.898" gradientUnits="userSpaceOnUse">
<stop stop-color="#8161E2"/>
<stop offset="1" stop-color="#CACCFF"/>
</linearGradient>
<linearGradient id="paint26_linear_195_338" x1="367.248" y1="182.82" x2="334.286" y2="182.82" gradientUnits="userSpaceOnUse">
<stop stop-color="#CCE9FF"/>
<stop offset="1" stop-color="#EAF6FF"/>
</linearGradient>
<linearGradient id="paint27_linear_195_338" x1="311.65" y1="445.483" x2="472.171" y2="455.462" gradientUnits="userSpaceOnUse">
<stop stop-color="#D10B57"/>
<stop offset="1" stop-color="white"/>
</linearGradient>
<linearGradient id="paint28_linear_195_338" x1="297.228" y1="509.555" x2="446.698" y2="414.988" gradientUnits="userSpaceOnUse">
<stop stop-color="#D10B57"/>
<stop offset="1" stop-color="white"/>
</linearGradient>
<linearGradient id="paint29_linear_195_338" x1="379.929" y1="516.05" x2="461.124" y2="444.823" gradientUnits="userSpaceOnUse">
<stop stop-color="#D10B57"/>
<stop offset="1" stop-color="white"/>
</linearGradient>
<linearGradient id="paint30_linear_195_338" x1="339.312" y1="496.404" x2="469.771" y2="413.88" gradientUnits="userSpaceOnUse">
<stop stop-color="#D10B57"/>
<stop offset="1" stop-color="white"/>
</linearGradient>
<linearGradient id="paint31_linear_195_338" x1="412.326" y1="440.439" x2="472.993" y2="402.055" gradientUnits="userSpaceOnUse">
<stop stop-color="#D10B57"/>
<stop offset="1" stop-color="white"/>
</linearGradient>
<linearGradient id="paint32_linear_195_338" x1="409.132" y1="471.448" x2="443.422" y2="431.983" gradientUnits="userSpaceOnUse">
<stop stop-color="#D10B57"/>
<stop offset="1" stop-color="white"/>
</linearGradient>
</defs>
</svg>
